# xmcd
# 
# Track frame offsets:
#     150
#     12812
#     22982
#     36605
#     50065
#     63920
#     76710
#     88905
#     101865
#     114305
#     129085
#     145920
#     159380
#     172512
# 
# Disc length: 2599
# 
# Revision: 2
# Processed by: cddbd v1.5.2PL0 Copyright (c) Steve Scherf et al.
# Submitted via: fre:ac v1.0.31
# 
DISCID=a70a250e
DTITLE=Roots of Rhythm - Good Lovin'
DYEAR=1999
DGENRE=R&B
TTITLE0=Mary Wells - My Guy
TTITLE1=Marvin Gaye and Tammi Terrell - Ain't NOthing Like the Real Thing
TTITLE2=Jr. Walker and the All Stars - How Sweet It Is (To Be Loved by You)
TTITLE3=The Clovers - Good Lovin'
TTITLE4=Eddie Floyd - Knock on Wood
TTITLE5=Bo Diddley - Dearest Darling
TTITLE6=Marv Johnson - You Got What It Takes
TTITLE7=The Elgins - Heaven Must Have Sent You
TTITLE8=Aretha Franklin - (You Make Me Feel Like A) Natural Woman
TTITLE9=Sarah Vaughan - All of Me
TTITLE10=Gladys Kinight and the Pips - Best Thing That Ever Happended to Me
TTITLE11=The Temptations - You're My Everything
TTITLE12=Diana Ross and the Supremes - Back in My Arms Again
TTITLE13=Al Green - Love and Happiness
EXTD=
EXTT0=
EXTT1=
EXTT2=
EXTT3=
EXTT4=
EXTT5=
EXTT6=
EXTT7=
EXTT8=
EXTT9=
EXTT10=
EXTT11=
EXTT12=
EXTT13=
PLAYORDER=
